# xmcd
#
# Track frame offsets: 
#        150
#        19694
#        40972
#        60179
#        71579
#        83376
#        99260
#
# Disc length: 1476 seconds
#
# Revision: 0
# Processed by: cddbd v1.5.2PL0 Copyright (c) Steve Scherf et al.
# Submitted via: ExactAudioCopyFreeDBPlugin 1.0
#
DISCID=4405c207
DTITLE=Rebel Son - Bury Me In Southern Ground
DYEAR=2014
DGENRE=Shockabilly
TTITLE0=Bury Me In Southern Ground (Acoustic)
TTITLE1=Bury Me In Southern Ground (Electric)
TTITLE2=Bury Me In Southern Ground (Live)
TTITLE3=Wayfaring Stranger
TTITLE4=When The Roll Is Called Up Yonder
TTITLE5=Leaning On The Everlasting Arms
TTITLE6=Nearer, My God, To Thee
EXTD=
EXTT0=
EXTT1=
EXTT2=
EXTT3=
EXTT4=
EXTT5=
EXTT6=
PLAYORDER=
